# xmcd
# 
# Track frame offsets:
#     150
#     21195
#     33045
#     47980
#     69466
#     85953
#     105003
#     119264
#     133892
#     147269
#     160455
#     171180
#     191977
#     202325
# 
# Disc length: 2810
# 
# Revision: 2
# Processed by: cddbd v1.5.2PL0 Copyright (c) Steve Scherf et al.
# Submitted via: fre:ac v1.0.31
# 
DISCID=cb0af80e
DTITLE=Dr. John - Blues Boulevard Disc 2
DYEAR=2011
DGENRE=Jazz
TTITLE0=Mean Cheatin' Woman
TTITLE1=Bald Headed
TTITLE2=Zu Zu Man
TTITLE3=Qualified
TTITLE4=Scrubbin'
TTITLE5=Shoo Ra
TTITLE6=What Goes Around (Comes Around)
TTITLE7=A Quitter Never Wins
TTITLE8=Helping Hand
TTITLE9=I Pulled The Covers Offa You Two Lovers
TTITLE10=The Ear Is On Strike
TTITLE11=Just Like A Mirror
TTITLE12=Trader John
TTITLE13=New Orleans
EXTD=
EXTT0=
EXTT1=
EXTT2=
EXTT3=
EXTT4=
EXTT5=
EXTT6=
EXTT7=
EXTT8=
EXTT9=
EXTT10=
EXTT11=
EXTT12=
EXTT13=
PLAYORDER=
